<svg width="100" height="100" viewBox="0 0 100 100" fill="none" xmlns="http://www.w3.org/2000/svg">
  <defs>
    <linearGradient id="favGrad" x1="0" y1="0" x2="1" y2="1">
      <stop offset="0%" stop-color="#1e3a8a" />
      <stop offset="100%" stop-color="#3db54a" />
    </linearGradient>
  </defs>
  <rect width="100" height="100" rx="22" fill="url(#favGrad)" />
  <path d="M50 82 C50 82 18 62 18 40 C18 30 26 22 36 22 C42 22 47 26 50 30 C53 26 58 22 64 22 C74 22 82 30 82 40 C82 62 50 82 50 82Z" fill="#ffffff" />
  <path d="M50 36 L36 48 L64 48 Z" fill="url(#favGrad)" />
  <rect x="39" y="48" width="22" height="18" rx="1" fill="url(#favGrad)" />
  <path d="M46 66 L46 57 C46 53.7 48 52 50 52 C52 52 54 53.7 54 57 L54 66 Z" fill="#ffffff" />
</svg>
